<svg width="69" height="69" viewBox="0 0 69 69" fill="none" xmlns="http://www.w3.org/2000/svg">
<rect width="69" height="69" fill="#F5F5F5"/>
<g id="Reyada">
<path d="M-4836.25 -646.976C-4836.25 -648.081 -4835.36 -648.977 -4834.25 -648.977H5733.75C5734.85 -648.977 5735.75 -648.081 5735.75 -646.977V2402.02C5735.75 2403.13 5734.85 2404.02 5733.75 2404.02H-4834.25C-4835.35 2404.02 -4836.25 2403.13 -4836.25 2402.02V-646.976Z" fill="#ADADAD"/>
<path d="M-4834.25 -648.977V-647.977H5733.75V-648.977V-649.977H-4834.25V-648.977ZM5735.75 -646.977H5734.75V2402.02H5735.75H5736.75V-646.977H5735.75ZM5733.75 2404.02V2403.02H-4834.25V2404.02V2405.02H5733.75V2404.02ZM-4836.25 2402.02H-4835.25V-646.976H-4836.25H-4837.25V2402.02H-4836.25ZM-4834.25 2404.02V2403.02C-4834.8 2403.02 -4835.25 2402.58 -4835.25 2402.02H-4836.25H-4837.25C-4837.25 2403.68 -4835.91 2405.02 -4834.25 2405.02V2404.02ZM5735.75 2402.02H5734.75C5734.75 2402.58 5734.3 2403.02 5733.75 2403.02V2404.02V2405.02C5735.41 2405.02 5736.75 2403.68 5736.75 2402.02H5735.75ZM5733.75 -648.977V-647.977C5734.3 -647.977 5734.75 -647.529 5734.75 -646.977H5735.75H5736.75C5736.75 -648.633 5735.41 -649.977 5733.75 -649.977V-648.977ZM-4834.25 -648.977V-649.977C-4835.91 -649.977 -4837.25 -648.633 -4837.25 -646.976H-4836.25H-4835.25C-4835.25 -647.529 -4834.8 -647.977 -4834.25 -647.977V-648.977Z" fill="black" fill-opacity="0.1"/>
<g id="A4 - 123">
<rect width="595" height="842" transform="translate(-92.2505 -369.977)" fill="#F5FAFF"/>
<g id="Frame 1684599465">
<g id="Group 48095574">
<g id="Frame 1684724">
<rect width="134.584" height="103.337" transform="translate(-32.792)" fill="white"/>
<g id="Solid Icon. Employee">
<g id="Union">
<path fill-rule="evenodd" clip-rule="evenodd" d="M15.8206 14.2188C11.5335 14.2188 8.05811 17.6777 8.05811 21.9445V41.7089C8.05811 45.9757 11.5335 49.4347 15.8206 49.4347H46.7662C51.0533 49.4347 54.5287 45.9757 54.5287 41.7089V21.9445C54.5287 17.6777 51.0533 14.2188 46.7662 14.2188H15.8206ZM14.0321 38.9574C16.0242 38.0027 18.5802 37.5727 20.6995 37.5727C22.8187 37.5727 25.0641 37.9788 27.0562 38.9335C29.1257 39.9252 30.8058 41.7449 31.1904 44.3104C31.4147 45.8064 30.6786 46.324 29.3294 46.324H16.476L16.4964 46.2937C16.4964 46.2937 13.1611 46.6112 12.0183 43.727C11.1072 41.4276 12.2161 40.2801 12.2161 40.2801L12.1975 40.2822C12.7533 39.759 13.377 39.3028 14.0321 38.9574ZM17.9087 25.0028C14.2796 27.6134 15.484 35.0014 20.6098 35.0014C26.7637 35.0014 27.295 24.1609 20.6099 24.1609C19.6697 24.1609 18.5114 24.5693 17.9087 25.0028ZM32.2513 23.9281C31.1399 23.9281 30.2388 24.8291 30.2388 25.9406C30.2388 27.052 31.1399 27.953 32.2513 27.953H44.5996C45.7111 27.953 46.6121 27.052 46.6121 25.9406C46.6121 24.8291 45.7111 23.9281 44.5996 23.9281H32.2513ZM30.2388 33.4762C30.2388 32.3647 31.1399 31.4637 32.2513 31.4637H40.4419C41.5534 31.4637 42.4544 32.3647 42.4544 33.4762C42.4544 34.5877 41.5534 35.4887 40.4419 35.4887H32.2513C31.1399 35.4887 30.2388 34.5877 30.2388 33.4762Z" fill="url(#paint0_radial_1_5)"/>
<path d="M24.6577 55.4745C21.8055 55.4745 19.3127 53.9364 17.9634 51.6444H50.9654C51.5125 51.6444 52.0416 51.568 52.5429 51.4253C54.8598 51.1872 56.667 49.2295 56.667 46.8497V46.6442C56.699 46.3988 56.7155 46.1486 56.7155 45.8945V22.7988C59.0882 24.1269 60.6921 26.6646 60.6921 29.577V46.8497C60.6921 51.6131 56.8305 55.4745 52.067 55.4745H24.6577Z" fill="url(#paint1_radial_1_5)"/>
</g>
</g>
</g>
</g>
</g>
</g>
</g>
<defs>
<radialGradient id="paint0_radial_1_5" cx="0" cy="0" r="1" gradientTransform="matrix(36.1365 25.2596 -32.2261 86.9888 23.2726 30.215)" gradientUnits="userSpaceOnUse">
<stop stop-color="#0066A1"/>
<stop offset="1" stop-color="#002153"/>
</radialGradient>
<radialGradient id="paint1_radial_1_5" cx="0" cy="0" r="1" gradientTransform="matrix(36.1365 25.2596 -32.2261 86.9888 23.2726 30.215)" gradientUnits="userSpaceOnUse">
<stop stop-color="#0066A1"/>
<stop offset="1" stop-color="#002153"/>
</radialGradient>
</defs>
</svg>
