<svg width="48" height="48" viewBox="1.356 1.465 21.287 21.287" fill="none" xmlns="http://www.w3.org/2000/svg">
<path d="M14.708 16.417C15.2601 16.4172 15.708 16.8648 15.708 17.417C15.708 17.9692 15.2601 18.4168 14.708 18.417H9.29102C8.73873 18.417 8.29102 17.9693 8.29102 17.417C8.29102 16.8647 8.73873 16.417 9.29102 16.417H14.708Z" fill="#FFFFFF"/>
<path d="M16.875 11C17.4273 11 17.875 11.4477 17.875 12C17.875 12.5523 17.4273 13 16.875 13H7.125C6.57272 13 6.125 12.5523 6.125 12C6.125 11.4477 6.57272 11 7.125 11H16.875Z" fill="#FFFFFF"/>
<path d="M19.583 5.7998C20.1351 5.79998 20.583 6.24763 20.583 6.7998C20.583 7.35198 20.1351 7.79963 19.583 7.7998H4.41602C3.86373 7.7998 3.41602 7.35209 3.41602 6.7998C3.41602 6.24752 3.86373 5.7998 4.41602 5.7998H19.583Z" fill="#FFFFFF"/>
</svg>
