<svg preserveAspectRatio="none" overflow="visible" style="display: block;" width="51" height="51" viewBox="0 0 51 51" fill="none" xmlns="http://www.w3.org/2000/svg" xmlns:c2pa="http://c2pa.org/manifest"><metadata><c2pa:manifest>AAAWgmp1bWIAAAAeanVtZGMycGEAEQAQgAAAqgA4m3EDYzJwYQAAABZcanVtYgAAAEdqdW1kYzJtYQARABCAAACqADibcQN1cm46YzJwYTpiYzYyZTJmNy02OTg3LTQ1NmYtYWRiMi0yYjk1MjEyMTI5NTMAAAADl2p1bWIAAAApanVtZGMyYXMAEQAQgAAAqgA4m3EDYzJwYS5hc3NlcnRpb25zAAAAALxqdW1iAAAARGp1bWRjYm9yABEAEIAAAKoAOJtxE2MycGEuaW5ncmVkaWVudC52MwAAAAAYYzJzaGlEdhIXDHY9OUXqaFC0nioAAABwY2JvcqNpZGM6Zm9ybWF0bWltYWdlL3N2Zyt4bWxqaW5zdGFuY2VJRHgseG1wOmlpZDowMmY4M2FjZS1hOTMxLTRkNWQtYmUxNS1hMGQzOGRjYzgzMTNscmVsYXRpb25zaGlwaHBhcmVudE9mAAAB4mp1bWIAAABBanVtZGNib3IAEQAQgAAAqgA4m3ETYzJwYS5hY3Rpb25zLnYyAAAAABhjMnNoxnndFGk3eHm4xm+o5ulhXgAAAZljYm9yomdhY3Rpb25zgqJmYWN0aW9ua2MycGEub3BlbmVkanBhcmFtZXRlcnOha2luZ3JlZGllbnRzgaJjdXJseC1zZWxmI2p1bWJmPWMycGEuYXNzZXJ0aW9ucy9jMnBhLmluZ3JlZGllbnQudjNkaGFzaFggdXIRsliWTSKqv7w7B9CH4vHgdjOuEwIrIETVmKu10fSkZmFjdGlvbngdY29tLmFudGhyb3BpYy5jbGF1ZGUucHJvdmlkZWRqcGFyYW1ldGVyc6F4H2NvbS5hbnRocm9waWMub3JpZ2luLWNvbmZpZGVuY2VndW5rbm93bmtkZXNjcmlwdGlvbnhmQ2xhdWRlIHByb3ZpZGVkIHRoaXMgZmlsZSBhdCB0aGUgcmVxdWVzdCBvZiBhIHVzZXIgYW5kIG1heSBoYXZlIGNyZWF0ZWQgb3IgbW9kaWZpZWQgdGhlIGZpbGUgY29udGVudHMubXNvZnR3YXJlQWdlbnShZG5hbWVmQ2xhdWRlcmFsbEFjdGlvbnNJbmNsdWRlZPUAAADIanVtYgAAAEBqdW1kY2JvcgARABCAAACqADibcRNjMnBhLmhhc2guZGF0YQAAAAAYYzJzaAIXo01yAXpqeh1sP9B0640AAACAY2JvcqVjYWxnZnNoYTI1NmNwYWRNAAAAAAAAAAAAAAAAAGRoYXNoWCAS4l+lKKZewvWOtGESsEt6RXdgI7jmXK1l3CZEoHwWtmRuYW1lbmp1bWJmIG1hbmlmZXN0amV4Y2x1c2lvbnOBomVzdGFydBjkZmxlbmd0aBkeBAAAAj5qdW1iAAAAJ2p1bWRjMmNsABEAEIAAAKoAOJtxA2MycGEuY2xhaW0udjIAAAACD2Nib3KlY2FsZ2ZzaGEyNTZpc2lnbmF0dXJleE1zZWxmI2p1bWJmPS9jMnBhL3VybjpjMnBhOmJjNjJlMmY3LTY5ODctNDU2Zi1hZGIyLTJiOTUyMTIxMjk1My9jMnBhLnNpZ25hdHVyZWppbnN0YW5jZUlEeCx4bXA6aWlkOjZjZGM3ZWJhLWFmNDktNDY1My04N2ZlLTIxZTRhYTkxZjVkZnJjcmVhdGVkX2Fzc2VydGlvbnODomN1cmx4LXNlbGYjanVtYmY9YzJwYS5hc3NlcnRpb25zL2MycGEuaW5ncmVkaWVudC52M2RoYXNoWCB1chGyWJZNIqq/vDsH0Ifi8eB2M64TAisgRNWYq7XR9KJjdXJseCpzZWxmI2p1bWJmPWMycGEuYXNzZXJ0aW9ucy9jMnBhLmFjdGlvbnMudjJkaGFzaFgg7+K91l/7EGnJUo6G4F86BM9L93xCrNL27fRYx5rC0kCiY3VybHgpc2VsZiNqdW1iZj1jMnBhLmFzc2VydGlvbnMvYzJwYS5oYXNoLmRhdGFkaGFzaFggUl1VrAmLRkfE9J50EU9rL1d2CwSvfWckfPpvkh8qtIt0Y2xhaW1fZ2VuZXJhdG9yX2luZm+jZG5hbWVvQW50aHJvcGljIEZpbGVzZ3ZlcnNpb25lMS4wLjBrc3BlY1ZlcnNpb25lMi40LjAAABA4anVtYgAAAChqdW1kYzJjcwARABCAAACqADibcQNjMnBhLnNpZ25hdHVyZQAAABAIY2JvctKEWQISogEmGCFZAgowggIGMIIBjaADAgECAhRA5aAK7sI50L64g/oGQgU9Z1UTADAKBggqhkjOPQQDAzBJMRcwFQYDVQQKEw5BbnRocm9waWMsIFBCQzEuMCwGA1UEAxMlQW50aHJvcGljIENvbnRlbnQgQ3JlZGVudGlhbHMgUm9vdCBDQTAeFw0yNjA4MDcxODQzNTZaFw0yODA4MDYxOTQzNTZaMEQxFzAVBgNVBAoTDkFudGhyb3BpYywgUEJDMSkwJwYDVQQDEyBBbnRocm9waWMgQ2xhdWRlIENvbnRlbnQgU2lnbmluZzBZMBMGByqGSM49AgEGCCqGSM49AwEHA0IABJh6CmvLUBgFFNU0vUKlOVtE6djd17L5SuwX0LemFisBM3dkd/3cyjxFA3Qo5S46fX0/ihY0VZ7mfb9KF703t5OjWDBWMA4GA1UdDwEB/wQEAwIHgDAVBgNVHSUEDjAMBgorBgEEAYPoXgIBMAwGA1UdEwEB/wQCMAAwHwYDVR0jBBgwFoAUzlHiBIFOZFsj+OPEz5o+nMHXXMIwCgYIKoZIzj0EAwMDZwAwZAIwMXMdFJ4BetLLVY7ORuE9noqbbAZOZn/aArXyTwFAZfKrPzxF2vPoJNf1+UCdg1XGAjBwX1zd9WGqYkqmL5SFqw1QySjr1zJfpJM9+1rdDwSPLMOPOjKuiXjoU/pUUeG9RwmhY3BhZFkNngAAAAAAAAAAAAAAAAAAAAAAAAAAAAAAAAAAAAAAAAAAAAAAAAAAAAAAAAAAAAAAAAAAAAAAAAAAAAAAAAAAAAAAAAAAAAAAAAAAAAAAAAAAAAAAAAAAAAAAAAAAAAAAAAAAAAAAAAAAAAAAAAAAAAAAAAAAAAAAAAAAAAAAAAAAAAAAAAAAAAAAAAAAAAAAAAAAAAAAAAAAAAAAAAAAAAAAAAAAAAAAAAAAAAAAAAAAAAAAAAAAAAAAAAAAAAAAAAAAAAAAAAAAAAAAAAAAAAAAAAAAAAAAAAAAAAAAAAAAAAAAAAAAAAAAAAAAAAAAAAAAAAAAAAAAAAAAAAAAAAAAAAAAAAAAAAAAAAAAAAAAAAAAAAAAAAAAAAAAAAAAAAAAAAAAAAAAAAAAAAAAAAAAAAAAAAAAAAAAAAAAAAAAAAAAAAAAAAAAAAAAAAAAAAAAAAAAAAAAAAAAAAAAAAAAAAAAAAAAAAAAAAAAAAAAAAAAAAAAAAAAAAAAAAAAAAAAAAAAAAAAAAAAAAAAAAAAAAAAAAAAAAAAAAAAAAAAAAAAAAAAAAAAAAAAAAAAAAAAAAAAAAAAAAAAAAAAAAAAAAAAAAAAAAAAAAAAAAAAAAAAAAAAAAAAAAAAAAAAAAAAAAAAAAAAAAAAAAAAAAAAAAAAAAAAAAAAAAAAAAAAAAAAAAAAAAAAAAAAAAAAAAAAAAAAAAAAAAAAAAAAAAAAAAAAAAAAAAAAAAAAAAAAAAAAAAAAAAAAAAAAAAAAAAAAAAAAAAAAAAAAAAAAAAAAAAAAAAAAAAAAAAAAAAAAAAAAAAAAAAAAAAAAAAAAAAAAAAAAAAAAAAAAAAAAAAAAAAAAAAAAAAAAAAAAAAAAAAAAAAAAAAAAAAAAAAAAAAAAAAAAAAAAAAAAAAAAAAAAAAAAAAAAAAAAAAAAAAAAAAAAAAAAAAAAAAAAAAAAAAAAAAAAAAAAAAAAAAAAAAAAAAAAAAAAAAAAAAAAAAAAAAAAAAAAAAAAAAAAAAAAAAAAAAAAAAAAAAAAAAAAAAAAAAAAAAAAAAAAAAAAAAAAAAAAAAAAAAAAAAAAAAAAAAAAAAAAAAAAAAAAAAAAAAAAAAAAAAAAAAAAAAAAAAAAAAAAAAAAAAAAAAAAAAAAAAAAAAAAAAAAAAAAAAAAAAAAAAAAAAAAAAAAAAAAAAAAAAAAAAAAAAAAAAAAAAAAAAAAAAAAAAAAAAAAAAAAAAAAAAAAAAAAAAAAAAAAAAAAAAAAAAAAAAAAAAAAAAAAAAAAAAAAAAAAAAAAAAAAAAAAAAAAAAAAAAAAAAAAAAAAAAAAAAAAAAAAAAAAAAAAAAAAAAAAAAAAAAAAAAAAAAAAAAAAAAAAAAAAAAAAAAAAAAAAAAAAAAAAAAAAAAAAAAAAAAAAAAAAAAAAAAAAAAAAAAAAAAAAAAAAAAAAAAAAAAAAAAAAAAAAAAAAAAAAAAAAAAAAAAAAAAAAAAAAAAAAAAAAAAAAAAAAAAAAAAAAAAAAAAAAAAAAAAAAAAAAAAAAAAAAAAAAAAAAAAAAAAAAAAAAAAAAAAAAAAAAAAAAAAAAAAAAAAAAAAAAAAAAAAAAAAAAAAAAAAAAAAAAAAAAAAAAAAAAAAAAAAAAAAAAAAAAAAAAAAAAAAAAAAAAAAAAAAAAAAAAAAAAAAAAAAAAAAAAAAAAAAAAAAAAAAAAAAAAAAAAAAAAAAAAAAAAAAAAAAAAAAAAAAAAAAAAAAAAAAAAAAAAAAAAAAAAAAAAAAAAAAAAAAAAAAAAAAAAAAAAAAAAAAAAAAAAAAAAAAAAAAAAAAAAAAAAAAAAAAAAAAAAAAAAAAAAAAAAAAAAAAAAAAAAAAAAAAAAAAAAAAAAAAAAAAAAAAAAAAAAAAAAAAAAAAAAAAAAAAAAAAAAAAAAAAAAAAAAAAAAAAAAAAAAAAAAAAAAAAAAAAAAAAAAAAAAAAAAAAAAAAAAAAAAAAAAAAAAAAAAAAAAAAAAAAAAAAAAAAAAAAAAAAAAAAAAAAAAAAAAAAAAAAAAAAAAAAAAAAAAAAAAAAAAAAAAAAAAAAAAAAAAAAAAAAAAAAAAAAAAAAAAAAAAAAAAAAAAAAAAAAAAAAAAAAAAAAAAAAAAAAAAAAAAAAAAAAAAAAAAAAAAAAAAAAAAAAAAAAAAAAAAAAAAAAAAAAAAAAAAAAAAAAAAAAAAAAAAAAAAAAAAAAAAAAAAAAAAAAAAAAAAAAAAAAAAAAAAAAAAAAAAAAAAAAAAAAAAAAAAAAAAAAAAAAAAAAAAAAAAAAAAAAAAAAAAAAAAAAAAAAAAAAAAAAAAAAAAAAAAAAAAAAAAAAAAAAAAAAAAAAAAAAAAAAAAAAAAAAAAAAAAAAAAAAAAAAAAAAAAAAAAAAAAAAAAAAAAAAAAAAAAAAAAAAAAAAAAAAAAAAAAAAAAAAAAAAAAAAAAAAAAAAAAAAAAAAAAAAAAAAAAAAAAAAAAAAAAAAAAAAAAAAAAAAAAAAAAAAAAAAAAAAAAAAAAAAAAAAAAAAAAAAAAAAAAAAAAAAAAAAAAAAAAAAAAAAAAAAAAAAAAAAAAAAAAAAAAAAAAAAAAAAAAAAAAAAAAAAAAAAAAAAAAAAAAAAAAAAAAAAAAAAAAAAAAAAAAAAAAAAAAAAAAAAAAAAAAAAAAAAAAAAAAAAAAAAAAAAAAAAAAAAAAAAAAAAAAAAAAAAAAAAAAAAAAAAAAAAAAAAAAAAAAAAAAAAAAAAAAAAAAAAAAAAAAAAAAAAAAAAAAAAAAAAAAAAAAAAAAAAAAAAAAAAAAAAAAAAAAAAAAAAAAAAAAAAAAAAAAAAAAAAAAAAAAAAAAAAAAAAAAAAAAAAAAAAAAAAAAAAAAAAAAAAAAAAAAAAAAAAAAAAAAAAAAAAAAAAAAAAAAAAAAAAAAAAAAAAAAAAAAAAAAAAAAAAAAAAAAAAAAAAAAAAAAAAAAAAAAAAAAAAAAAAAAAAAAAAAAAAAAAAAAAAAAAAAAAAAAAAAAAAAAAAAAAAAAAAAAAAAAAAAAAAAAAAAAAAAAAAAAAAAAAAAAAAAAAAAAAAAAAAAAAAAAAAAAAAAAAAAAAAAAAAAAAAAAAAAAAAAAAAAAAAAAAAAAAAAAAAAAAAAAAAAAAAAAAAAAAAAAAAAAAAAAAAAAAAAAAAAAAAAAAAAAAAAAAAAAAAAAAAAAAAAAAAAAAAAAAAAAAAAAAAAAAAAAAAAAAAAAAAAAAAAAAAAAAAAAAAAAAAAAAAAAAAAAAAAAAAAAAAAAAAAAAAAAAAAAAAAAAAAAAAAAAAAAAAAAAAAAAAAAAAAAAAAAAAAAAAAAAAAAAAAAAAAAAAAAAAAAAAAAAAAAAAAAAAAAAAAAAAAAAAAAAAAAAAAAAAAAAAAAAAAAAAAAAAAAAAAAAAAAAAAAAAAAAAAAAAAAAAAAAAAAAAAAAAAAAAAAAAAAAAAAAAAAAAAAAAAAAAAAAAAAAAAAAAAAAAAAAAAAAAAAAAAAAAAAAAAAAAAAAAAAAAAAAAAAAAAAAAAAAAAAAAAAAAAAAAAAAAAAAAAAAAAAAAAAAAAAAAAAAAAAAAAAAAAAAAAAAAAAAAAAAAAAAAAAAAAAAAAAAAAAAAAAAAAAAAAAAAAAAAAAAAAAAAAAAAAAAAAAAAAAAAAAAAAAAAAAAAAAAAAAAAAAAAAAAAAAAAAAAAAAAAAAAAAAAAAAAAAAAAAAAAAAAAAAAAAAAAAAAAAAAAAAAAAAAAAAAAAAAAAAAAAAAAAAAAAAAAAAAAAAAAAAAAAAAAAAAAAAAAAAAAAAAAAAAAAAAAAAAAAAAAAAAAAAAAAAAAAAAAAAAAAAAAAAAAAAAAAAAAAAAAAAAAAAAAAAAAAAAAAAAAAAAAAAAAAAAAAAAAAAAAAAAAAAAAAAAAAAAAAAAAAAAAAAAAAAAAAAAAAAAAAAAAAAAAAAAAAAAAAAAAAAAAAAAAAAAAAAAAAAAAAAAAAAAAAAAAAAAAAAAAAAAAAAAAAAAAAAAAAAAAAAAAAAAAAAAAAAAAAAAAAAAAAAAAAAAAAAAAAAAAAAAAAAAAAAAAAAAAAAAAAAAAAAAAAAAAAAAAAAAAAAAAAAAAAAAAAAAAAAAAAAAAAAAAAAAAAAAAAAAAAAAAAAAAAAAAAAAAAAAAAAAAAAAAAAAAAAAAAAAAAAAAAAAAAAAAAAAAAAAAAAAAAAAAAAAAAAAAAAAAAAAAAAAAAAAAAAAAAAAAAAAAAAAAAAAAAAAAAAAAAAAAAAAAAAAAAAAAAAAAAAAAAAAAAAAAAAAAAAAAAAAAAAAAAAAAAAAAAAAAAAAAAAAAAAAAAAAAAAAAAAAAAAAAAAAAAAAAAAAAAAAAAAAAAAAAAAAAAAAAAAAAAAAAAAAAAAAAAAAAAAAAAAAAAAAAAAAAAAAAAAAAAAAAAAAAAAAAAAAAAAAAAAAAAAAAAAAAAAAAAAAAAAAAAAAAAAAAAAAAAAAAAAAAAAAAAAAAAAAAAAAAAAAAAAAAAAAAAAAAAAAAAAAAAAAAAAAAAAAAAAAAAAAAAAAAAAAAAAAAAAAAAAAAAAAAAAAAAAAAAAAAAAAAAAAAAAAAAAAAAAAAAAAAAAAAAAAAAAAAAAAAAAAAAAAAAAAAAAAPZYQPrQp0SMEVIs8/u7kzYqKEO6DujSYaoRGBpwH3YNRnUwydpnrrYNGiKOPwel8+54HJEIDvb3YP+QFx5VNiZoNpQ=</c2pa:manifest></metadata>
<g id="Icon. 3 Persons">
<g id="Icon">
<path d="M36.1142 37.3121C36.5726 37.2305 36.8735 36.7907 36.7787 36.3348C36.2676 33.8779 35.3472 30.4938 35.3472 30.4938C35.3472 29.5462 34.0772 28.463 31.5745 27.8323C30.7245 27.6007 29.918 27.2427 29.1845 26.7715C29.067 26.4795 29.0204 26.1658 29.0485 25.8541L28.2463 25.7343C28.2463 25.667 28.1777 24.674 28.1777 24.674C29.1417 24.3581 29.0426 22.4942 29.0426 22.4942C29.6548 22.8252 30.0535 21.3522 30.0535 21.3522C30.7777 19.3039 29.6929 19.4272 29.6929 19.4272C29.8826 18.1759 29.8826 16.9051 29.6929 15.6539C29.2109 11.5042 21.9493 12.6294 22.8107 13.9859C20.6886 13.6028 21.173 18.3143 21.173 18.3143L21.6333 19.5325C20.9958 19.9351 21.1206 20.3983 21.2601 20.9158C21.3184 21.1318 21.3792 21.3573 21.3882 21.5919C21.4327 22.7681 22.1686 22.5239 22.1686 22.5239C22.2143 24.4634 23.1942 24.7183 23.1942 24.7183C23.3783 25.9364 23.2639 25.7264 23.2639 25.7264L22.3914 25.8295C22.4034 26.1063 22.3803 26.3835 22.3228 26.655C21.816 26.8758 21.5059 27.0509 21.1996 27.2238C20.8843 27.4018 20.5732 27.5774 20.0559 27.7982C18.0857 28.6383 15.9443 29.7355 15.5643 31.2096C15.332 32.111 14.8177 34.6403 14.4532 36.4697C14.3602 36.9366 14.6693 37.3882 15.1392 37.4641C18.2955 37.974 21.6709 38.25 25.1786 38.25C29.0206 38.25 32.7037 37.9189 36.1142 37.3121Z" fill="url(#paint0_radial_0_77)"/>
<path d="M45.6192 33.4669C46.2845 33.2903 46.7194 32.6641 46.552 31.9964C46.2421 30.7602 45.6028 29.1896 44.8393 28.7269C43.7955 28.0943 43.8886 28.2256 43.2346 27.8706C42.8026 27.6261 42.3468 27.4222 41.8735 27.2619C41.631 27.0535 41.4431 26.7936 41.3252 26.5031C41.0764 26.2007 40.7493 25.9654 40.3763 25.8207L40.3485 24.9127L42.3107 24.3141C42.3107 24.3141 42.8168 24.0844 42.8663 24.0844C42.7878 23.9243 42.6974 23.7698 42.5957 23.6222C42.5585 23.5256 42.3735 22.8633 42.3735 22.8633C42.6596 23.2205 42.9961 23.538 43.3735 23.8068C43.0393 23.1972 42.7533 22.5644 42.5179 21.914C42.3606 21.3118 42.2512 20.6991 42.1907 20.0811C42.0559 18.9327 41.846 17.7935 41.5624 16.6701C41.3608 16.1119 41.0016 15.6177 40.5246 15.2421C39.8253 14.768 39.0045 14.4838 38.1496 14.4196H38.0513C37.1963 14.4835 36.3755 14.7678 35.6763 15.2421C35.1999 15.6182 34.8411 16.1122 34.639 16.6701C34.3547 17.7934 34.1447 18.9326 34.0101 20.0811C33.9583 20.7129 33.8541 21.3398 33.6985 21.9559C33.4629 22.5949 33.1717 23.2138 32.8279 23.8063C33.2032 23.5361 33.5377 23.2177 33.8218 22.8601C33.8218 22.8601 33.5846 23.5866 33.5468 23.6837C33.4604 23.8092 33.3876 23.9427 33.3296 24.0822C33.3785 24.0822 33.8851 24.312 33.8851 24.312L35.8468 24.9127L35.8185 25.8207C35.4456 25.966 35.1187 26.2014 34.8696 26.5036C34.7752 26.7049 34.6594 26.8964 34.524 27.0751C36.3113 27.783 37.3574 28.8194 37.3996 29.9789C37.4079 30.0379 37.5022 30.3904 37.6342 30.8839C37.964 32.117 38.5291 34.2298 38.5752 34.8407H38.7364C41.2262 34.4828 43.5386 34.0189 45.6192 33.4669Z" fill="url(#paint1_radial_0_77)"/>
<path d="M12.4336 34.835H11.7217C9.45438 34.5104 7.33364 34.098 5.40055 33.6112C4.72572 33.4412 4.2733 32.8101 4.41959 32.1298C4.68359 30.902 5.26005 29.3398 6.22964 28.7035C6.85809 28.2911 7.11902 28.2199 7.773 27.8648C8.20501 27.6204 8.66086 27.4165 9.13411 27.2562C9.37668 27.0478 9.56452 26.7879 9.68245 26.4973C9.93124 26.1949 10.2583 25.9597 10.6313 25.8149L10.6597 24.907L8.69744 24.3084C8.69744 24.3084 8.19133 24.0786 8.14189 24.0786C8.22022 23.9186 8.31045 23.7641 8.41189 23.6164C8.44911 23.5198 8.63411 22.8576 8.63411 22.8576C8.34805 23.2147 8.0115 23.5323 7.63411 23.8011C7.96834 23.1914 8.25432 22.5587 8.48967 21.9082C8.64705 21.3061 8.75643 20.6933 8.81689 20.0754C8.95174 18.927 9.1616 17.7877 9.44522 16.6643C9.64688 16.1061 10.006 15.612 10.483 15.2363C11.1824 14.7623 12.0031 14.478 12.858 14.4138H12.9563C13.8113 14.4778 14.6321 14.7621 15.3314 15.2363C15.8077 15.6124 16.1666 16.1064 16.3686 16.6643C16.6529 17.7876 16.8629 18.9269 16.9975 20.0754C17.0493 20.7072 17.1535 21.3341 17.3091 21.9502C17.5447 22.5891 17.8359 23.2081 18.1797 23.8006C17.8049 23.5305 17.4708 23.2124 17.187 22.8552C17.1923 22.8715 17.4246 23.5825 17.4619 23.6785C17.5483 23.804 17.6211 23.9375 17.6791 24.077C17.6302 24.077 17.1236 24.3068 17.1236 24.3068L15.1614 24.907L15.1897 25.8149C15.5625 25.9603 15.8895 26.1956 16.1386 26.4979C16.233 26.6992 16.3488 26.8907 16.4841 27.0694C14.6969 27.7773 13.6508 28.8136 13.6091 29.9731C13.6008 30.0317 13.5078 30.3794 13.3773 30.867C13.0479 32.0984 12.4797 34.2222 12.4336 34.835Z" fill="url(#paint2_radial_0_77)"/>
</g>
</g>
<defs>
<radialGradient id="paint0_radial_0_77" cx="0" cy="0" r="1" gradientTransform="matrix(28.9701 15.6128 -25.8352 53.7674 16.5893 22.6372)" gradientUnits="userSpaceOnUse">
<stop stop-color="#0066A1"/>
<stop offset="1" stop-color="#002153"/>
</radialGradient>
<radialGradient id="paint1_radial_0_77" cx="0" cy="0" r="1" gradientTransform="matrix(28.9701 15.6128 -25.8352 53.7674 16.5893 22.6372)" gradientUnits="userSpaceOnUse">
<stop stop-color="#0066A1"/>
<stop offset="1" stop-color="#002153"/>
</radialGradient>
<radialGradient id="paint2_radial_0_77" cx="0" cy="0" r="1" gradientTransform="matrix(28.9701 15.6128 -25.8352 53.7674 16.5893 22.6372)" gradientUnits="userSpaceOnUse">
<stop stop-color="#0066A1"/>
<stop offset="1" stop-color="#002153"/>
</radialGradient>
</defs>
</svg>
