<svg width="24" height="24" viewBox="0 0 24 24" fill="none" xmlns="http://www.w3.org/2000/svg">

<g id="Solid Icons (Web and Mobile)">

<g id="Solid Icon. Upload">
<path id="Subtract" fill-rule="evenodd" clip-rule="evenodd" d="M9.91434 4.90039C11.5332 4.91842 13.0052 5.79354 13.76 7.16602C14.0578 7.10168 14.3633 7.0693 14.6692 7.06934L14.8909 7.0752C17.0595 7.18593 18.8019 8.90502 18.9671 11.0625C20.5559 11.7049 21.6234 13.2243 21.5999 14.9414L21.5979 14.9404C21.6349 17.2027 19.7821 19.0379 17.4866 19.0996H7.82059C7.81103 19.0996 7.80075 19.0972 7.79129 19.0967C7.7543 19.098 7.70816 19.0996 7.66531 19.0996C4.84591 19.0996 2.54845 16.8765 2.4075 14.0859L2.40067 13.8145C2.37926 11.7392 3.61178 9.87065 5.50906 8.99609C5.67991 6.70847 7.57965 4.90039 9.9075 4.90039H9.91434ZM12.0013 9.7998C11.8159 9.79984 11.6373 9.8739 11.5061 10.0049L9.50418 12.0049C9.23099 12.2781 9.2311 12.7217 9.50418 12.9951C9.77743 13.2682 10.221 13.2682 10.4944 12.9951L11.2991 12.1904V16C11.2991 16.3866 11.6127 16.7001 11.9993 16.7002C12.3858 16.7001 12.6995 16.3865 12.6995 16V12.1895L13.5042 12.9951C13.7774 13.2682 14.221 13.2682 14.4944 12.9951C14.7674 12.7219 14.7673 12.2783 14.4944 12.0049L12.4964 10.0049C12.3653 9.87383 12.1866 9.79999 12.0013 9.7998Z" fill="#FFFFFF"/>
</g>
</g>
</svg>
